<svg xmlns="http://www.w3.org/2000/svg">

	<symbol fill="none" xmlns="http://www.w3.org/2000/svg" viewBox="0 0 16 16" id="facebook-icon">
    	<path d="M12 1.33325H10C9.11597 1.33325 8.26812 1.68444 7.643 2.30956C7.01788 2.93468 6.66669 3.78253 6.66669 4.66659V6.66659H4.66669V9.33325H6.66669V14.6666H9.33335V9.33325H11.3334L12 6.66659H9.33335V4.66659C9.33335 4.48977 9.40359 4.32021 9.52862 4.19518C9.65364 4.07016 9.82321 3.99992 10 3.99992H12V1.33325Z" stroke="" stroke-linecap="round" stroke-linejoin="round"></path>
  	</symbol>

	<symbol fill="none" xmlns="http://www.w3.org/2000/svg" viewBox="0 0 13 13" id="twitter-icon">
    	<path d="M12.4584 1.62508C11.9396 1.99096 11.3653 2.2708 10.7575 2.45383C10.4313 2.07873 9.99774 1.81287 9.5155 1.6922C9.03325 1.57154 8.52558 1.60189 8.06115 1.77915C7.59671 1.95642 7.19793 2.27204 6.91872 2.68334C6.63951 3.09464 6.49336 3.58176 6.50002 4.07883V4.62049C5.54811 4.64518 4.60488 4.43406 3.75432 4.00594C2.90376 3.57783 2.17228 2.946 1.62502 2.16674C1.62502 2.16674 -0.541646 7.04174 4.33335 9.20841C3.21781 9.96564 1.8889 10.3453 0.541687 10.2917C5.41669 13.0001 11.375 10.2917 11.375 4.06258C11.3745 3.9117 11.36 3.76119 11.3317 3.61299C11.8845 3.0678 12.2746 2.37946 12.4584 1.62508V1.62508Z" stroke="" stroke-linecap="round" stroke-linejoin="round"></path>
  	</symbol>

	<symbol fill="none" xmlns="http://www.w3.org/2000/svg" viewBox="0 0 13 13" id="instagram-icon">
		<g clip-path="url(#clip0_154_1087)">
		<path d="M9.20831 1.08325H3.79165C2.29588 1.08325 1.08331 2.29581 1.08331 3.79159V9.20825C1.08331 10.704 2.29588 11.9166 3.79165 11.9166H9.20831C10.7041 11.9166 11.9166 10.704 11.9166 9.20825V3.79159C11.9166 2.29581 10.7041 1.08325 9.20831 1.08325Z" stroke="" stroke-linecap="round" stroke-linejoin="round"></path>
		<path d="M8.66665 6.15867C8.7335 6.60947 8.6565 7.06987 8.4466 7.47439C8.23671 7.8789 7.9046 8.20693 7.49753 8.41183C7.09046 8.61672 6.62914 8.68803 6.1792 8.61563C5.72926 8.54323 5.3136 8.3308 4.99135 8.00855C4.66911 7.6863 4.45667 7.27064 4.38427 6.8207C4.31187 6.37076 4.38319 5.90945 4.58808 5.50237C4.79297 5.0953 5.121 4.7632 5.52552 4.5533C5.93003 4.3434 6.39043 4.2664 6.84123 4.33325C7.30107 4.40144 7.72678 4.61571 8.05548 4.94442C8.38419 5.27313 8.59846 5.69884 8.66665 6.15867Z" stroke="" stroke-linecap="round" stroke-linejoin="round"></path>
		<path d="M9.47919 3.52075H9.48585" stroke="" stroke-linecap="round" stroke-linejoin="round"></path>
		</g>
		<defs>
		<clipPath id="clip0_154_1087">
			<rect width="13" height="13" fill="white"></rect>
		</clipPath>
		</defs>
	</symbol>

	<symbol fill="none" xmlns="http://www.w3.org/2000/svg" viewBox="0 0 16 16" id="right-arrow">
    	<path d="M9.62 3.95337L13.6667 8.00003L9.62 12.0467" stroke="" stroke-miterlimit="10" stroke-linecap="round" stroke-linejoin="round"></path>
    	<path d="M2.33331 8H13.5533" stroke="" stroke-miterlimit="10" stroke-linecap="round" stroke-linejoin="round"></path>
  	</symbol>

	<symbol id="ribbon-icon" viewBox="0 0 10 8">
		<path d="M2.3881 2.24162L1.44368 0.258789H0.208333L1.44368 2.84587C1.54215 2.67877 1.67345 2.5415 1.83756 2.43408C2.00168 2.32367 2.18519 2.25952 2.3881 2.24162ZM3.57869 2.84587L4.81404 0.258789H3.57869L2.63427 2.24162C2.83719 2.25952 3.02069 2.32367 3.18481 2.43408C3.34894 2.5415 3.48023 2.67877 3.57869 2.84587ZM2.51344 2.97119C2.37617 2.97119 2.25829 3.02042 2.15983 3.1189C2.06434 3.21437 2.0166 3.32927 2.0166 3.46354C2.0166 3.60081 2.06434 3.71717 2.15983 3.81267C2.25829 3.91112 2.37617 3.96037 2.51344 3.96037C2.64771 3.96037 2.76258 3.91112 2.85808 3.81267C2.95654 3.71717 3.00577 3.60081 3.00577 3.46354C3.00577 3.32927 2.95654 3.21437 2.85808 3.1189C2.76258 3.02042 2.64771 2.97119 2.51344 2.97119ZM2.51344 2.39379C2.36423 2.39379 2.22398 2.42215 2.09269 2.47883C1.96438 2.53554 1.85099 2.61312 1.75252 2.71158C1.65704 2.80708 1.58095 2.91898 1.52425 3.04729C1.47054 3.17858 1.44368 3.31733 1.44368 3.46354C1.44368 3.61273 1.47054 3.7515 1.52425 3.87979C1.58095 4.0111 1.65704 4.12448 1.75252 4.21998C1.85099 4.31844 1.96438 4.39454 2.09269 4.44825C2.22398 4.50494 2.36423 4.53329 2.51344 4.53329C2.65965 4.53329 2.79839 4.50494 2.92969 4.44825C3.058 4.39454 3.16989 4.31844 3.26537 4.21998C3.36385 4.12448 3.44144 4.0111 3.49812 3.87979C3.55183 3.7515 3.57869 3.61273 3.57869 3.46354C3.57869 3.31733 3.55183 3.17858 3.49812 3.04729C3.44144 2.91898 3.36385 2.80708 3.26537 2.71158C3.16989 2.61312 3.058 2.53554 2.92969 2.47883C2.79839 2.42215 2.65965 2.39379 2.51344 2.39379ZM2.51344 4.20654C2.30754 4.20654 2.13148 4.13344 1.98527 3.98723C1.84204 3.844 1.77043 3.66944 1.77043 3.46354C1.77043 3.25765 1.84204 3.08308 1.98527 2.93985C2.13148 2.79662 2.30754 2.72502 2.51344 2.72502C2.71633 2.72502 2.88939 2.79662 3.03262 2.93985C3.17885 3.08308 3.25196 3.25765 3.25196 3.46354C3.25196 3.66944 3.17885 3.844 3.03262 3.98723C2.88939 4.13344 2.71633 4.20654 2.51344 4.20654Z" fill="#EB5325"></path>
	</symbol>


	<symbol id="dark-light-icon" viewBox="0 0 18 18">
		<path d="M9 13.5C7.80653 13.5 6.66193 13.0259 5.81802 12.182C4.97411 11.3381 4.5 10.1935 4.5 9C4.5 7.80653 4.97411 6.66193 5.81802 5.81802C6.66193 4.97411 7.80653 4.5 9 4.5C10.1935 4.5 11.3381 4.97411 12.182 5.81802C13.0259 6.66193 13.5 7.80653 13.5 9C13.5 10.1935 13.0259 11.3381 12.182 12.182C11.3381 13.0259 10.1935 13.5 9 13.5ZM9 15C10.5913 15 12.1174 14.3679 13.2426 13.2426C14.3679 12.1174 15 10.5913 15 9C15 7.4087 14.3679 5.88258 13.2426 4.75736C12.1174 3.63214 10.5913 3 9 3C7.4087 3 5.88258 3.63214 4.75736 4.75736C3.63214 5.88258 3 7.4087 3 9C3 10.5913 3.63214 12.1174 4.75736 13.2426C5.88258 14.3679 7.4087 15 9 15ZM9.75 0.75C9.75 0.948912 9.67098 1.13968 9.53033 1.28033C9.38968 1.42098 9.19891 1.5 9 1.5C8.80109 1.5 8.61032 1.42098 8.46967 1.28033C8.32902 1.13968 8.25 0.948912 8.25 0.75C8.25 0.551088 8.32902 0.360322 8.46967 0.21967C8.61032 0.0790178 8.80109 0 9 0C9.19891 0 9.38968 0.0790178 9.53033 0.21967C9.67098 0.360322 9.75 0.551088 9.75 0.75ZM9.75 17.25C9.75 17.4489 9.67098 17.6397 9.53033 17.7803C9.38968 17.921 9.19891 18 9 18C8.80109 18 8.61032 17.921 8.46967 17.7803C8.32902 17.6397 8.25 17.4489 8.25 17.25C8.25 17.0511 8.32902 16.8603 8.46967 16.7197C8.61032 16.579 8.80109 16.5 9 16.5C9.19891 16.5 9.38968 16.579 9.53033 16.7197C9.67098 16.8603 9.75 17.0511 9.75 17.25ZM17.25 9.75C17.0511 9.75 16.8603 9.67098 16.7197 9.53033C16.579 9.38968 16.5 9.19891 16.5 9C16.5 8.80109 16.579 8.61032 16.7197 8.46967C16.8603 8.32902 17.0511 8.25 17.25 8.25C17.4489 8.25 17.6397 8.32902 17.7803 8.46967C17.921 8.61032 18 8.80109 18 9C18 9.19891 17.921 9.38968 17.7803 9.53033C17.6397 9.67098 17.4489 9.75 17.25 9.75ZM0.75 9.75C0.551088 9.75 0.360322 9.67098 0.21967 9.53033C0.0790178 9.38968 0 9.19891 0 9C0 8.80109 0.0790178 8.61032 0.21967 8.46967C0.360322 8.32902 0.551088 8.25 0.75 8.25C0.948912 8.25 1.13968 8.32902 1.28033 8.46967C1.42098 8.61032 1.5 8.80109 1.5 9C1.5 9.19891 1.42098 9.38968 1.28033 9.53033C1.13968 9.67098 0.948912 9.75 0.75 9.75ZM15.3645 3.696C15.2953 3.76763 15.2126 3.82477 15.1211 3.86408C15.0295 3.90338 14.9311 3.92407 14.8316 3.92494C14.732 3.9258 14.6332 3.90683 14.541 3.86912C14.4489 3.83141 14.3651 3.77572 14.2947 3.7053C14.2243 3.63488 14.1686 3.55114 14.1309 3.45897C14.0932 3.36679 14.0742 3.26803 14.0751 3.16845C14.0759 3.06886 14.0966 2.97045 14.1359 2.87895C14.1752 2.78744 14.2324 2.70468 14.304 2.6355C14.4455 2.49888 14.6349 2.42329 14.8316 2.42499C15.0282 2.4267 15.2163 2.50558 15.3554 2.64464C15.4944 2.78369 15.5733 2.9718 15.575 3.16845C15.5767 3.3651 15.5011 3.55455 15.3645 3.696ZM3.696 15.3645C3.62682 15.4361 3.54406 15.4933 3.45255 15.5326C3.36105 15.5719 3.26264 15.5926 3.16305 15.5934C3.06347 15.5943 2.96471 15.5753 2.87253 15.5376C2.78036 15.4999 2.69662 15.4442 2.6262 15.3738C2.55578 15.3034 2.50009 15.2196 2.46238 15.1275C2.42467 15.0353 2.4057 14.9365 2.40656 14.8369C2.40743 14.7374 2.42812 14.6389 2.46742 14.5474C2.50673 14.4559 2.56387 14.3732 2.6355 14.304C2.77695 14.1674 2.9664 14.0918 3.16305 14.0935C3.3597 14.0952 3.54781 14.1741 3.68686 14.3131C3.82592 14.4522 3.9048 14.6403 3.90651 14.8369C3.90821 15.0336 3.83262 15.223 3.696 15.3645ZM14.304 15.3645C14.2324 15.2953 14.1752 15.2126 14.1359 15.1211C14.0966 15.0295 14.0759 14.9311 14.0751 14.8316C14.0742 14.732 14.0932 14.6332 14.1309 14.541C14.1686 14.4489 14.2243 14.3651 14.2947 14.2947C14.3651 14.2243 14.4489 14.1686 14.541 14.1309C14.6332 14.0932 14.732 14.0742 14.8316 14.0751C14.9311 14.0759 15.0295 14.0966 15.1211 14.1359C15.2126 14.1752 15.2953 14.2324 15.3645 14.304C15.5011 14.4455 15.5767 14.6349 15.575 14.8316C15.5733 15.0282 15.4944 15.2163 15.3554 15.3554C15.2163 15.4944 15.0282 15.5733 14.8316 15.575C14.6349 15.5767 14.4455 15.5011 14.304 15.3645ZM2.6355 3.696C2.56387 3.62682 2.50673 3.54406 2.46742 3.45255C2.42812 3.36105 2.40743 3.26264 2.40656 3.16305C2.4057 3.06347 2.42467 2.96471 2.46238 2.87253C2.50009 2.78036 2.55578 2.69662 2.6262 2.6262C2.69662 2.55578 2.78036 2.50009 2.87253 2.46238C2.96471 2.42467 3.06347 2.4057 3.16305 2.40656C3.26264 2.40743 3.36105 2.42812 3.45255 2.46742C3.54406 2.50673 3.62682 2.56387 3.696 2.6355C3.83262 2.77695 3.90821 2.9664 3.90651 3.16305C3.9048 3.3597 3.82592 3.54781 3.68686 3.68686C3.54781 3.82592 3.3597 3.9048 3.16305 3.90651C2.9664 3.90821 2.77695 3.83262 2.6355 3.696Z" fill="#4F525E" stroke="none"></path>
	</symbol>

	<symbol id="bell-icon" viewBox="0 0 20 20">
		<path d="M10.0167 2.42505C7.25835 2.42505 5.01668 4.66671 5.01668 7.42505V9.83338C5.01668 10.3417 4.80001 11.1167 4.54168 11.55L3.58335 13.1417C2.99168 14.125 3.40001 15.2167 4.48335 15.5834C8.07501 16.7834 11.95 16.7834 15.5417 15.5834C16.55 15.25 16.9917 14.0584 16.4417 13.1417L15.4833 11.55C15.2333 11.1167 15.0167 10.3417 15.0167 9.83338V7.42505C15.0167 4.67505 12.7667 2.42505 10.0167 2.42505Z" stroke="#4F525E" stroke-miterlimit="10" stroke-linecap="round"></path>
    	<path d="M11.5583 2.6667C11.3 2.5917 11.0333 2.53337 10.7583 2.50003C9.95831 2.40003 9.19164 2.45837 8.47498 2.6667C8.71664 2.05003 9.31664 1.6167 10.0166 1.6167C10.7166 1.6167 11.3166 2.05003 11.5583 2.6667Z" stroke="#4F525E" stroke-miterlimit="10" stroke-linecap="round" stroke-linejoin="round"></path>
    	<path d="M12.5167 15.8833C12.5167 17.2583 11.3917 18.3833 10.0167 18.3833C9.33333 18.3833 8.7 18.1 8.25 17.65C7.8 17.2 7.51666 16.5666 7.51666 15.8833" stroke="#4F525E" stroke-miterlimit="10"></path>
	</symbol>

	<symbol id="Play-icon" viewBox="0 0 12 12" fill="none">
		<path d="M1.33334 5.99998V3.92331C1.33334 1.34498 3.15918 0.289146 5.39334 1.57831L7.19584 2.61665L8.99834 3.65498C11.2325 4.94415 11.2325 7.05581 8.99834 8.34498L7.19584 9.38331L5.39334 10.4216C3.15918 11.7108 1.33334 10.655 1.33334 8.07665V5.99998Z" stroke="" stroke-width="1.5" stroke-miterlimit="10" stroke-linecap="round" stroke-linejoin="round"/>
	</symbol>


	<symbol id="calendar" viewBox="0 0 20 20">
		<path d="M17.656,20.000 L2.344,20.000 C1.051,20.000 -0.000,18.949 -0.000,17.656 L-0.000,3.906 C-0.000,2.614 1.051,1.562 2.344,1.562 L3.281,1.562 L3.281,-0.000 L4.844,-0.000 L4.844,1.562 L15.156,1.562 L15.156,-0.000 L16.719,-0.000 L16.719,1.562 L17.656,1.562 C18.949,1.562 20.000,2.614 20.000,3.906 L20.000,17.656 C20.000,18.949 18.949,20.000 17.656,20.000 ZM18.437,3.906 C18.437,3.475 18.087,3.125 17.656,3.125 L16.719,3.125 L16.719,4.687 L15.156,4.687 L15.156,3.125 L4.844,3.125 L4.844,4.687 L3.281,4.687 L3.281,3.125 L2.344,3.125 C1.913,3.125 1.562,3.475 1.562,3.906 L1.562,5.781 L18.437,5.781 L18.437,3.906 ZM18.437,7.344 L1.562,7.344 L1.562,17.656 C1.562,18.087 1.913,18.437 2.344,18.437 L17.656,18.437 C18.087,18.437 18.437,18.087 18.437,17.656 L18.437,7.344 ZM15.469,12.109 L17.031,12.109 L17.031,13.672 L15.469,13.672 L15.469,12.109 ZM15.469,8.984 L17.031,8.984 L17.031,10.547 L15.469,10.547 L15.469,8.984 ZM12.344,15.234 L13.906,15.234 L13.906,16.797 L12.344,16.797 L12.344,15.234 ZM12.344,12.109 L13.906,12.109 L13.906,13.672 L12.344,13.672 L12.344,12.109 ZM12.344,8.984 L13.906,8.984 L13.906,10.547 L12.344,10.547 L12.344,8.984 ZM9.219,15.234 L10.781,15.234 L10.781,16.797 L9.219,16.797 L9.219,15.234 ZM9.219,12.109 L10.781,12.109 L10.781,13.672 L9.219,13.672 L9.219,12.109 ZM9.219,8.984 L10.781,8.984 L10.781,10.547 L9.219,10.547 L9.219,8.984 ZM6.094,15.234 L7.656,15.234 L7.656,16.797 L6.094,16.797 L6.094,15.234 ZM6.094,12.109 L7.656,12.109 L7.656,13.672 L6.094,13.672 L6.094,12.109 ZM6.094,8.984 L7.656,8.984 L7.656,10.547 L6.094,10.547 L6.094,8.984 ZM2.969,15.234 L4.531,15.234 L4.531,16.797 L2.969,16.797 L2.969,15.234 ZM2.969,12.109 L4.531,12.109 L4.531,13.672 L2.969,13.672 L2.969,12.109 ZM2.969,8.984 L4.531,8.984 L4.531,10.547 L2.969,10.547 L2.969,8.984 Z"/>
	</symbol>
	
	<symbol id="home" viewBox="0 0 16 16">
		<path fill-rule="evenodd" d="M2 13.5V7h1v6.5a.5.5 0 0 0 .5.5h9a.5.5 0 0 0 .5-.5V7h1v6.5a1.5 1.5 0 0 1-1.5 1.5h-9A1.5 1.5 0 0 1 2 13.5zm11-11V6l-2-2V2.5a.5.5 0 0 1 .5-.5h1a.5.5 0 0 1 .5.5z"/>
  <path fill-rule="evenodd" d="M7.293 1.5a1 1 0 0 1 1.414 0l6.647 6.646a.5.5 0 0 1-.708.708L8 2.207 1.354 8.854a.5.5 0 1 1-.708-.708L7.293 1.5z"/>
	</symbol>
	
	<symbol id="matches" viewBox="0 0 411.72456 411">
		<path d="m60.023438 60.605469c-80.15625 80.503906-80.011719 210.707031.320312 291.039062s210.53125 80.472657 291.039062.316407c80.457032-80.457032 80.457032-210.902344 0-291.355469-80.328124-80.324219-211.03125-80.324219-291.359374 0zm11.316406 11.3125c72.054687-71.8945315 187.929687-74.328125 262.945312-5.53125l-268.480468 268.476562c-68.921876-74.96875-66.480469-190.941406 5.53125-262.945312zm268.726562 268.730469c-72.191406 72.191406-188.492187 74.027343-262.941406 5.527343l268.476562-268.476562c68.921876 74.96875 66.484376 190.945312-5.53125 262.949219zm0 0"/><path d="m187.882812 176.933594-11.527343 11.527344c-3.125 3.125-3.125 8.1875 0 11.3125s8.191406 3.125 11.316406 0l11.523437-11.527344c3.125-3.121094 3.125-8.1875 0-11.3125s-8.191406-3.125-11.3125 0zm0 0"/><path d="m217.867188 237.972656c2.125.003906 4.160156-.839844 5.660156-2.34375l11.523437-11.523437c3.125-3.125 3.125-8.191407 0-11.316407s-8.191406-3.121093-11.3125 0l-11.527343 11.527344c-2.289063 2.289063-2.972657 5.726563-1.734376 8.71875 1.238282 2.988282 4.15625 4.9375 7.390626 4.9375zm0 0"/><path d="m216.695312 148.121094-11.527343 11.527344c-3.089844 3.128906-3.074219 8.167968.035156 11.277343s8.148437 3.125 11.277344.035157l11.527343-11.527344c3.125-3.125 3.125-8.1875 0-11.3125s-8.191406-3.125-11.3125 0zm0 0"/><path d="m246.683594 209.160156c2.121094 0 4.15625-.84375 5.65625-2.34375l11.523437-11.527344c3.007813-3.140624 2.953125-8.113281-.125-11.1875-3.074219-3.074218-8.042969-3.128906-11.1875-.121093l-11.527343 11.527343c-2.285157 2.289063-2.96875 5.726563-1.730469 8.71875 1.238281 2.988282 4.152343 4.9375 7.390625 4.9375zm0 0"/><path d="m245.503906 119.308594-11.527344 11.523437c-3.125 3.125-3.121093 8.191407 0 11.316407 3.125 3.125 8.191407 3.121093 11.316407 0l11.523437-11.527344c3.125-3.125 3.125-8.1875 0-11.3125s-8.1875-3.125-11.3125 0zm0 0"/><path d="m275.496094 180.347656c2.121094 0 4.15625-.84375 5.65625-2.34375l11.523437-11.523437c3.125-3.125 3.125-8.1875 0-11.3125s-8.1875-3.125-11.3125 0l-11.523437 11.527343c-2.289063 2.285157-2.972656 5.726563-1.734375 8.714844 1.238281 2.992188 4.15625 4.9375 7.390625 4.941406zm0 0"/><path d="m159.070312 205.746094-11.527343 11.527344c-2.09375 2.003906-2.941407 4.988281-2.210938 7.792968.730469 2.804688 2.921875 4.996094 5.730469 5.726563 2.804688.730469 5.789062-.117188 7.792969-2.210938l11.527343-11.523437c3.089844-3.132813 3.074219-8.171875-.035156-11.28125s-8.148437-3.125-11.277344-.035156zm0 0"/><path d="m189.054688 266.78125c2.125.003906 4.160156-.839844 5.660156-2.34375l11.523437-11.523438c3.09375-3.132812 3.078125-8.167968-.035156-11.28125-3.109375-3.109374-8.148437-3.125-11.277344-.03125l-11.523437 11.527344c-2.289063 2.289063-2.972656 5.730469-1.734375 8.71875 1.238281 2.988282 4.15625 4.9375 7.394531 4.9375zm0 0"/><path d="m130.253906 234.5625-11.523437 11.519531c-3.125 3.125-3.125 8.191407 0 11.3125 3.125 3.125 8.191406 3.125 11.3125 0l11.527343-11.523437c3.089844-3.132813 3.074219-8.167969-.035156-11.28125-3.113281-3.109375-8.152344-3.125-11.28125-.03125zm0 0"/><path d="m160.242188 295.597656c2.121093.003906 4.160156-.839844 5.65625-2.34375l11.527343-11.523437c3.125-3.125 3.125-8.191407 0-11.316407-3.125-3.121093-8.191406-3.121093-11.316406.003907l-11.523437 11.523437c-2.289063 2.289063-2.972657 5.730469-1.734376 8.71875 1.238282 2.988282 4.15625 4.9375 7.390626 4.9375zm0 0"/><path d="m101.441406 263.375-11.523437 11.523438c-2.058594 2.011718-2.878907 4.976562-2.144531 7.761718.734374 2.785156 2.910156 4.957032 5.695312 5.695313 2.785156.734375 5.746094-.085938 7.761719-2.144531l11.527343-11.527344c2.039063-2.019532 2.84375-4.972656 2.109376-7.746094-.738282-2.773438-2.90625-4.941406-5.679688-5.679688-2.773438-.734374-5.726562.070313-7.746094 2.109376zm0 0"/><path d="m131.429688 324.410156c2.121093.003906 4.160156-.839844 5.65625-2.339844l11.527343-11.527343c3.007813-3.140625 2.953125-8.113281-.121093-11.1875-3.074219-3.078125-8.046876-3.132813-11.1875-.125l-11.527344 11.523437c-2.289063 2.289063-2.972656 5.730469-1.734375 8.71875 1.238281 2.992188 4.15625 4.941406 7.390625 4.9375zm0 0"/><path d="m67.402344 316.726562c2.125.003907 4.160156-.839843 5.65625-2.339843l11.527344-11.527344c3.125-3.125 3.125-8.191406 0-11.3125-3.125-3.125-8.191407-3.125-11.316407 0l-11.527343 11.523437c-2.285157 2.289063-2.96875 5.730469-1.730469 8.71875 1.238281 2.988282 4.152343 4.9375 7.390625 4.9375zm0 0"/><path d="m120.4375 327.402344c-3.121094-3.125-8.1875-3.125-11.3125 0l-11.523438 11.527344c-3.121093 3.121093-3.121093 8.1875.003907 11.3125s8.1875 3.125 11.3125 0l11.527343-11.527344c3.121094-3.125 3.117188-8.1875-.007812-11.3125zm0 0"/><path d="m274.320312 90.496094-11.527343 11.523437c-2.09375 2.007813-2.941407 4.988281-2.210938 7.792969.730469 2.808594 2.921875 5 5.726563 5.730469 2.808594.730469 5.789062-.113281 7.792968-2.210938l11.527344-11.523437c3.125-3.125 3.125-8.191406 0-11.3125-3.125-3.125-8.191406-3.125-11.316406 0zm0 0"/><path d="m304.304688 151.53125c2.121093.003906 4.15625-.839844 5.65625-2.339844l11.527343-11.527344c2.058594-2.011718 2.875-4.976562 2.140625-7.761718-.734375-2.78125-2.910156-4.957032-5.695312-5.691406-2.78125-.734376-5.746094.082031-7.761719 2.140624l-11.519531 11.53125c-2.289063 2.285157-2.972656 5.726563-1.734375 8.714844 1.238281 2.992188 4.152343 4.941406 7.390625 4.941406zm0 0"/><path d="m290.96875 85.160156c3.121094 3.125 8.1875 3.125 11.3125 0l11.523438-11.523437c3.121093-3.125 3.121093-8.191407-.003907-11.316407-3.121093-3.121093-8.1875-3.121093-11.3125.003907l-11.523437 11.523437c-3.125 3.125-3.121094 8.191406.003906 11.3125zm0 0"/><path d="m338.347656 98.183594-11.523437 11.519531c-3.125 3.125-3.125 8.191406 0 11.316406 3.125 3.121094 8.191406 3.121094 11.3125 0l11.527343-11.527343c2.078126-2.007813 2.914063-4.984376 2.179688-7.78125-.734375-2.796876-2.917969-4.980469-5.714844-5.710938-2.796875-.734375-5.769531.101562-7.78125 2.183594zm0 0"/><path d="m241.023438 230.082031-11.519532 11.523438c-2.042968 2.015625-2.847656 4.972656-2.109375 7.746093.738281 2.773438 2.902344 4.9375 5.675781 5.675782 2.773438.734375 5.730469-.070313 7.746094-2.109375l11.527344-11.527344c3.121094-3.125 3.121094-8.191406-.003906-11.3125-3.125-3.125-8.191406-3.121094-11.316406.003906zm0 0"/><path d="m269.839844 201.265625-11.527344 11.523437c-3.125 3.125-3.125 8.191407 0 11.316407s8.191406 3.121093 11.316406 0l11.523438-11.523438c3.125-3.125 3.125-8.191406 0-11.3125-3.125-3.125-8.191406-3.125-11.3125 0zm0 0"/><path d="m298.652344 172.453125-11.527344 11.527344c-2.039062 2.019531-2.84375 4.972656-2.109375 7.746093.738281 2.773438 2.90625 4.941407 5.679687 5.675782 2.773438.738281 5.726563-.066406 7.742188-2.109375l11.527344-11.523438c3.125-3.125 3.125-8.191406 0-11.3125-3.125-3.125-8.191406-3.125-11.3125 0zm0 0"/><path d="m212.210938 258.890625-11.523438 11.527344c-3.125 3.125-3.125 8.191406 0 11.3125 3.125 3.125 8.191406 3.125 11.316406 0l11.523438-11.527344c3.125-3.121094 3.125-8.1875 0-11.3125s-8.191406-3.125-11.3125 0zm0 0"/><path d="m183.402344 287.703125-11.527344 11.527344c-2.058594 2.011719-2.878906 4.976562-2.144531 7.761719.734375 2.785156 2.910156 4.957031 5.695312 5.691406 2.785157.734375 5.746094-.082032 7.761719-2.140625l11.527344-11.523438c2.085937-2.007812 2.925781-4.988281 2.195312-7.789062-.730468-2.800781-2.917968-4.988281-5.71875-5.722657-2.800781-.730468-5.78125.109376-7.789062 2.195313zm0 0"/><path d="m154.585938 316.519531-11.527344 11.523438c-3.121094 3.125-3.121094 8.191406.003906 11.3125 3.125 3.125 8.1875 3.125 11.3125 0l11.527344-11.523438c3.09375-3.132812 3.078125-8.167969-.035156-11.28125-3.109376-3.109375-8.148438-3.125-11.277344-.03125zm0 0"/><path d="m126.414062 344.691406-11.527343 11.523438c-3.121094 3.125-3.121094 8.191406.003906 11.316406 3.125 3.121094 8.1875 3.121094 11.3125-.003906l11.523437-11.523438c3.125-3.125 3.125-8.191406 0-11.3125-3.121093-3.125-8.1875-3.125-11.3125 0zm0 0"/><path d="m327.464844 143.640625-11.527344 11.523437c-3.125 3.125-3.125 8.191407 0 11.316407s8.191406 3.125 11.316406 0l11.523438-11.523438c3.125-3.125 3.125-8.191406 0-11.3125-3.125-3.125-8.1875-3.125-11.3125 0zm0 0"/><path d="m344.113281 138.304688c3.121094 3.125 8.1875 3.125 11.3125 0l11.527344-11.523438c3.089844-3.128906 3.074219-8.167969-.035156-11.277344-3.113281-3.113281-8.152344-3.128906-11.28125-.035156l-11.523438 11.523438c-3.125 3.125-3.125 8.1875 0 11.3125zm0 0"/><path d="m164.722656 184.828125c2.125.003906 4.160156-.839844 5.660156-2.34375l11.519532-11.523437c3.09375-3.132813 3.078125-8.167969-.035156-11.28125-3.109376-3.109376-8.148438-3.125-11.277344-.03125l-11.523438 11.523437c-2.285156 2.289063-2.972656 5.730469-1.734375 8.71875s4.15625 4.9375 7.390625 4.9375zm0 0"/><path d="m193.539062 156.015625c2.121094.003906 4.15625-.839844 5.65625-2.34375l11.523438-11.523437c3.125-3.125 3.125-8.191407 0-11.316407s-8.191406-3.125-11.316406 0l-11.523438 11.527344c-2.289062 2.289063-2.972656 5.726563-1.734375 8.71875 1.238281 2.988281 4.15625 4.9375 7.390625 4.9375zm0 0"/><path d="m222.351562 127.203125c2.121094 0 4.15625-.84375 5.65625-2.34375l11.527344-11.527344c3.0625-3.132812 3.035156-8.148437-.066406-11.25-3.097656-3.097656-8.113281-3.125-11.25-.0625l-11.523438 11.527344c-2.289062 2.285156-2.972656 5.726563-1.734374 8.714844 1.238281 2.992187 4.152343 4.941406 7.390624 4.941406zm0 0"/><path d="m135.910156 213.640625c2.125.003906 4.160156-.839844 5.660156-2.34375l11.523438-11.523437c3.125-3.125 3.125-8.191407 0-11.316407-3.125-3.121093-8.191406-3.121093-11.3125.003907l-11.527344 11.519531c-2.289062 2.289062-2.972656 5.730469-1.734375 8.71875 1.238281 2.992187 4.15625 4.941406 7.390625 4.941406zm0 0"/><path d="m107.101562 242.453125c2.125.003906 4.160157-.839844 5.660157-2.339844l11.519531-11.53125c3.09375-3.128906 3.078125-8.167969-.035156-11.28125-3.109375-3.109375-8.148438-3.125-11.277344-.03125l-11.527344 11.523438c-2.289062 2.289062-2.972656 5.730469-1.734375 8.71875 1.238281 2.992187 4.15625 4.941406 7.390625 4.9375zm0 0"/><path d="m78.285156 271.269531c2.121094 0 4.160156-.84375 5.65625-2.34375l11.527344-11.527343c3.125-3.125 3.125-8.191407 0-11.316407s-8.191406-3.125-11.316406 0l-11.523438 11.523438c-2.289062 2.289062-2.972656 5.730469-1.734375 8.71875 1.238281 2.992187 4.15625 4.941406 7.390625 4.941406zm0 0"/><path d="m67.296875 274.257812c-3.125-3.125-8.191406-3.125-11.316406 0l-11.523438 11.523438c-2.042969 2.015625-2.847656 4.972656-2.109375 7.746094.734375 2.773437 2.902344 4.941406 5.675782 5.675781 2.773437.738281 5.730468-.066406 7.746093-2.109375l11.527344-11.523438c3.121094-3.125 3.121094-8.1875 0-11.3125zm0 0"/><path d="m251.164062 98.390625c2.121094 0 4.160157-.84375 5.65625-2.34375l11.527344-11.527344c3.121094-3.125 3.121094-8.1875-.003906-11.3125-3.121094-3.125-8.1875-3.125-11.3125 0l-11.527344 11.527344c-2.289062 2.285156-2.972656 5.726563-1.734375 8.714844 1.238281 2.992187 4.15625 4.9375 7.390625 4.941406zm0 0"/><path d="m279.335938 70.214844c2.121093.003906 4.160156-.839844 5.65625-2.339844l11.527343-11.527344c3.121094-3.125 3.121094-8.191406-.003906-11.3125-3.121094-3.125-8.1875-3.125-11.3125 0l-11.523437 11.523438c-2.289063 2.289062-2.972657 5.730468-1.734376 8.71875 1.238282 2.992187 4.15625 4.941406 7.390626 4.9375zm0 0"/>
	</symbol>

</svg>
